<?xml version="1.0" encoding="UTF-8"?>
<svg width="282px" height="35px" viewBox="0 0 282 35" version="1.1" xmlns="http://www.w3.org/2000/svg" xmlns:xlink="http://www.w3.org/1999/xlink">
    <!-- Generator: Sketch 58 (84663) - https://sketch.com -->
    <title>logo-dark</title>
    <desc>Created with Sketch.</desc>
    <defs>
        <linearGradient x1="50%" y1="0%" x2="50%" y2="100%" id="linearGradient-1">
            <stop stop-color="#FFD587" offset="0%"></stop>
            <stop stop-color="#FFC674" offset="34.1474415%"></stop>
            <stop stop-color="#FFAA4F" offset="100%"></stop>
        </linearGradient>
        <linearGradient x1="50%" y1="0%" x2="50%" y2="100%" id="linearGradient-2">
            <stop stop-color="#FF6F6F" offset="0%"></stop>
            <stop stop-color="#EB0000" offset="100%"></stop>
        </linearGradient>
        <linearGradient x1="50%" y1="0%" x2="50%" y2="100%" id="linearGradient-3">
            <stop stop-color="#00B4DF" offset="0%"></stop>
            <stop stop-color="#007DBB" offset="100%"></stop>
        </linearGradient>
    </defs>
    <g id="HiFi-Mockups" stroke="none" stroke-width="1" fill="none" fill-rule="evenodd">
        <g id="Option-6" transform="translate(-67.000000, -99.000000)">
            <g id="logo-dark" transform="translate(67.000000, 99.000000)">
                <g id="Group-2" transform="translate(0.000000, 1.000000)">
                    <path d="M0,23.3279981 C4.79999962,7.77599938 9.79199922,0 14.9759988,0 C22.7519982,0 20.7973064,10.678293 36.5759971,16.4159987 C42.9119966,18.7199985 52.0319959,21.0239983 63.9359949,23.3279981 L0,23.3279981 Z" id="Path-4" fill="url(#linearGradient-1)"></path>
                    <path d="M0,23.3279981 C7.61331539,19.8555464 13.7573149,17.0715466 18.4319985,14.9759988 C26.7839979,11.2319991 27.3599978,4.31999966 33.1199974,4.89599961 C38.8799969,5.47199957 37.789305,13.8462927 53.5679957,19.5839984 C59.9039952,21.8879983 63.359995,23.1359982 63.9359949,23.3279981 L0,23.3279981 Z" id="Path-4" fill="url(#linearGradient-2)"></path>
                    <path d="M0,23.3279981 C18.2399986,20.0639984 29.8559976,17.0879986 34.8479972,14.3999989 C42.3359966,10.3679992 42.0479967,8.35197506 49.823996,8.35197506 C55.0079956,8.35197506 59.7119953,13.3439828 63.9359949,23.3279981 L0,23.3279981 Z" id="Path-4" fill="url(#linearGradient-3)"></path>
                </g>
                <path d="M104,8.54325095 C103.232133,3.13688213 98.966205,0 93.432687,0 C86.9119114,0 82,4.63403042 82,12.5 C82,20.3540875 86.8509695,25 93.432687,25 C99.3684211,25 103.305263,21.2571293 104,16.6112167 L99.4415512,16.5874525 C98.8686981,19.4391635 96.4797784,21.043251 93.4936288,21.043251 C89.4470914,21.043251 86.5462604,18.0846008 86.5462604,12.5 C86.5462604,7.01045627 89.4227147,3.95674905 93.5058172,3.95674905 C96.5407202,3.95674905 98.9174515,5.63212928 99.4415512,8.54325095 L104,8.54325095 Z M110.206792,25 C113.116981,25 114.855849,23.647133 115.65283,22.1027095 L115.797736,22.1027095 L115.797736,24.6288595 L120,24.6288595 L120,12.3213671 C120,7.46061752 116.003019,6 112.464906,6 C108.564528,6 105.569811,7.72400756 104.603774,11.0762445 L108.685283,11.6509137 C109.12,10.3938248 110.351698,9.3163201 112.489057,9.3163201 C114.429532,9.3163201 115.530341,10.2583503 115.622395,11.9223813 L115.628679,12.2255829 C115.628679,13.1940069 114.832444,13.4454246 112.938847,13.6727008 L111.04,13.8777568 C107.441509,14.2608696 104,15.326402 104,19.4688091 C104,23.084436 106.668679,25 110.206792,25 Z M110.947967,22 C109.229268,22 108,21.167002 108,19.5613682 C108,17.8832998 109.377236,17.1830986 111.221138,16.9054326 L112.265487,16.7508625 C113.340083,16.581945 114.607696,16.3364185 115,16 L115,18.1851107 C115,20.249501 113.429268,22 110.947967,22 Z M125.296713,14.0102828 C125.296713,11.2994859 126.887209,9.73650386 129.15426,9.73650386 C131.373833,9.73650386 132.703203,11.2384319 132.703203,13.7416452 L132.703203,25 L137,25 L137,13.0578406 C137.011785,8.56426735 134.519217,6 130.756625,6 C128.026669,6 126.151308,7.34318766 125.320452,9.43123393 L125.106803,9.43123393 L125.106803,6.24421594 L121,6.24421594 L121,25 L125.296713,25 L125.296713,14.0102828 Z M155,6 L150.361446,6 L146.096386,20.1139323 L145.903614,20.1139323 L141.650602,6 L137,6 L143.590361,25 L148.409639,25 L155,6 Z M160.206792,25 C163.116981,25 164.855849,23.647133 165.65283,22.1027095 L165.797736,22.1027095 L165.797736,24.6288595 L170,24.6288595 L170,12.3213671 C170,7.46061752 166.003019,6 162.464906,6 C158.564528,6 155.569811,7.72400756 154.603774,11.0762445 L158.685283,11.6509137 C159.12,10.3938248 160.351698,9.3163201 162.489057,9.3163201 C164.429532,9.3163201 165.530341,10.2583503 165.622395,11.9223813 L165.628679,12.2255829 C165.628679,13.3323531 164.588698,13.5026255 162.059243,13.7706468 L161.04,13.8777568 C157.441509,14.2608696 154,15.326402 154,19.4688091 C154,23.084436 156.668679,25 160.206792,25 Z M160.947967,22 C159.229268,22 158,21.167002 158,19.5613682 C158,17.8832998 159.377236,17.1830986 161.221138,16.9054326 L162.265487,16.7508625 C163.340083,16.581945 164.607696,16.3364185 165,16 L165,18.1851107 C165,20.249501 163.429268,22 160.947967,22 Z M185.598479,11.1034048 C184.990114,7.98865069 182.459316,6 178.079087,6 C173.577186,6 170.511027,8.18032787 170.523194,11.5825977 C170.511027,14.2660782 172.190114,16.0390921 175.779468,16.7698613 L178.9673,17.4287516 C180.68289,17.8001261 181.485932,18.482976 181.485932,19.5252207 C181.485932,20.7831021 180.098859,21.7295082 178.006084,21.7295082 C175.986312,21.7295082 174.672243,20.8669609 174.295057,19.2137453 L170,19.6210593 C170.547529,22.9993695 173.431179,25 178.018251,25 C182.690494,25 185.987833,22.6160151 186,19.1298865 C185.987833,16.5063052 184.272243,14.9010088 180.743726,14.1462799 L177.555894,13.4754098 C175.657795,13.056116 174.903422,12.4092055 174.915589,11.3430013 C174.903422,10.0970996 176.302662,9.23455233 178.139924,9.23455233 C180.171863,9.23455233 181.242586,10.3247163 181.58327,11.5346784 L185.598479,11.1034048 Z M192.599615,3.51298972 L187.528752,3.51298972 L192.410087,12.4907029 L180,35 L185,35 L195.237839,15.8939315 L195.428742,15.8939315 L200.86948,24.9814058 L206,24.9814058 L198.351945,12.4907029 L205.880686,0 L200.833685,0 L195.428742,9.14846405 L195.237839,9.14846405 L192.599615,3.51298972 Z M206,32 L210.244138,32 L210.244138,22.0243902 L210.42,22.0243902 L210.587564,22.3482076 C211.312977,23.6734738 212.721538,25.304878 215.578621,25.304878 C219.822759,25.304878 223,21.804878 223,15.6341463 C223,9.3902439 219.728966,6 215.566897,6 C212.389655,6 211.064828,7.98780488 210.42,9.34146341 L210.173793,9.34146341 L210.173793,6.24390244 L206,6.24390244 L206,32 Z M210,15.9575329 C210,12.3417594 211.586777,10 214.475207,10 C217.46281,10 219,12.487361 219,15.9575329 C219,19.4519717 217.438017,22 214.475207,22 C211.61157,22 210,19.5733064 210,15.9575329 Z M224,25 L228.545662,25 L228.545662,13.9878049 C228.545662,11.6097561 230.391553,9.92682927 232.890411,9.92682927 C233.656393,9.92682927 234.610731,10.0609756 235,10.1829268 L235,6.12195122 C234.585616,6.04878049 233.869863,6 233.36758,6 C231.157534,6 229.311644,7.2195122 228.608447,9.3902439 L228.407534,9.3902439 L228.407534,6.26829268 L224,6.26829268 L224,25 Z M241.874738,25 C246.13366,25 249.060182,22.9035309 249.821554,19.704918 L245.80056,19.2496847 C245.217635,20.8070618 243.790063,21.6216898 241.93422,21.6216898 C239.150455,21.6216898 237.306508,19.776797 237.270819,16.6261034 L250,16.6261034 L250,15.296343 C250,8.83921816 246.145556,6 241.648705,6 C236.414276,6 233,9.86948298 233,15.5479193 C233,21.3221942 236.36669,25 241.874738,25 Z M238,14 C238.121884,11.8282548 239.728532,10 242.121884,10 C244.426593,10 245.977839,11.6842105 246,14 L238,14 Z M265.598479,11.1034048 C264.990114,7.98865069 262.459316,6 258.079087,6 C253.577186,6 250.511027,8.18032787 250.523194,11.5825977 C250.511027,14.2660782 252.190114,16.0390921 255.779468,16.7698613 L258.9673,17.4287516 C260.68289,17.8001261 261.485932,18.482976 261.485932,19.5252207 C261.485932,20.7831021 260.098859,21.7295082 258.006084,21.7295082 C255.986312,21.7295082 254.672243,20.8669609 254.295057,19.2137453 L250,19.6210593 C250.547529,22.9993695 253.431179,25 258.018251,25 C262.690494,25 265.987833,22.6160151 266,19.1298865 C265.987833,16.5063052 264.272243,14.9010088 260.743726,14.1462799 L257.555894,13.4754098 C255.657795,13.056116 254.903422,12.4092055 254.915589,11.3430013 C254.903422,10.0970996 256.302662,9.23455233 258.139924,9.23455233 C260.171863,9.23455233 261.242586,10.3247163 261.58327,11.5346784 L265.598479,11.1034048 Z M281.598479,11.1034048 L277.58327,11.5346784 C277.242586,10.3247163 276.171863,9.23455233 274.139924,9.23455233 C272.302662,9.23455233 270.903422,10.0970996 270.915589,11.3430013 C270.903422,12.4092055 271.657795,13.056116 273.555894,13.4754098 L276.743726,14.1462799 C280.272243,14.9010088 281.987833,16.5063052 282,19.1298865 C281.987833,22.6160151 278.690494,25 274.018251,25 C269.431179,25 266.547529,22.9993695 266,19.6210593 L270.295057,19.2137453 C270.672243,20.8669609 271.986312,21.7295082 274.006084,21.7295082 C276.098859,21.7295082 277.485932,20.7831021 277.485932,19.5252207 C277.485932,18.482976 276.68289,17.8001261 274.9673,17.4287516 L271.779468,16.7698613 C268.190114,16.0390921 266.511027,14.2660782 266.523194,11.5825977 C266.511027,8.18032787 269.577186,6 274.079087,6 C278.459316,6 280.990114,7.98865069 281.598479,11.1034048 Z" id="CanvasXpress-Copy" fill="#1C202B" fill-rule="nonzero"></path>
            </g>
        </g>
    </g>
</svg>